<svg width="60" height="16" viewBox="0 0 60 16" fill="none" xmlns="http://www.w3.org/2000/svg">
<path d="M0.683594 15L5.42969 0.585938H9.27734L14.082 15H11.0059L10.2051 12.2559H4.54102L3.71094 15H0.683594ZM5.22461 10.0098H9.54102L7.42188 2.75391L5.22461 10.0098Z" fill="#46C3DB"/>
<path d="M20.7015 15.1826C19.8105 15.1826 18.9887 15.0885 18.2361 14.9004C17.4835 14.7067 16.7918 14.4272 16.1609 14.062L16.7503 12.7837C17.2096 13.0549 17.7934 13.2983 18.5018 13.5142C19.2101 13.73 19.9323 13.8379 20.6683 13.8379C21.3213 13.8379 21.8193 13.7521 22.1624 13.5806C22.511 13.409 22.7518 13.1434 22.8846 12.7837C23.0174 12.4185 23.0838 11.9481 23.0838 11.3726C23.0838 11.035 22.9925 10.75 22.8099 10.5176C22.6272 10.2796 22.2316 10.0583 21.6229 9.85352L18.7259 8.89062C17.8958 8.61393 17.2981 8.26253 16.9329 7.83643C16.5677 7.40479 16.3851 6.77946 16.3851 5.96045C16.3851 5.19124 16.5594 4.57699 16.908 4.11768C17.2622 3.65837 17.7436 3.32633 18.3523 3.12158C18.9611 2.91683 19.6473 2.81445 20.4109 2.81445C21.4347 2.81445 22.2648 2.89469 22.9012 3.05518C23.5376 3.21012 24.0494 3.40934 24.4368 3.65283L24.0301 4.95605C23.6704 4.76237 23.2194 4.58252 22.6771 4.4165C22.1403 4.24495 21.4817 4.15918 20.7015 4.15918C19.8326 4.15918 19.1658 4.27262 18.701 4.49951C18.2361 4.7264 18.0037 5.21615 18.0037 5.96875C18.0037 6.33398 18.0812 6.63281 18.2361 6.86523C18.3966 7.09212 18.7314 7.29411 19.2405 7.47119L22.262 8.49219C23.081 8.76888 23.6787 9.13411 24.055 9.58789C24.4368 10.0417 24.6277 10.7223 24.6277 11.6299C24.6277 12.7367 24.3206 13.6055 23.7063 14.2363C23.0976 14.8672 22.096 15.1826 20.7015 15.1826ZM30.1185 15V4.3667H26.6571V2.99707H35.2567V4.3667H31.787V15H30.1185ZM37.9336 15V2.99707H43.2876C43.9627 2.99707 44.5493 3.10775 45.0473 3.3291C45.5509 3.54492 45.941 3.91292 46.2177 4.43311C46.5 4.94775 46.6411 5.65332 46.6411 6.5498C46.6411 7.51823 46.4834 8.23763 46.1679 8.70801C45.858 9.17285 45.4513 9.51042 44.9477 9.7207L47.4961 15H45.7778L43.3955 10.0195H39.6103V15H37.9336ZM39.6103 8.75781H43.1464C43.6334 8.75781 44.007 8.6665 44.2671 8.48389C44.5271 8.30127 44.707 8.05501 44.8066 7.74512C44.9117 7.42969 44.9643 7.08105 44.9643 6.69922C44.9643 6.31185 44.9311 5.93278 44.8647 5.56201C44.8038 5.19124 44.66 4.88411 44.4331 4.64062C44.2062 4.3916 43.8409 4.26709 43.3374 4.26709H39.6103V8.75781ZM54.9375 15.1826C53.9359 15.1826 53.1114 15.0802 52.4639 14.8755C51.822 14.6707 51.3212 14.383 50.9615 14.0122C50.6018 13.6359 50.35 13.1904 50.2061 12.6758C50.0622 12.1611 49.9903 11.5911 49.9903 10.9658V7.18896C49.9903 6.55257 50.0594 5.96875 50.1978 5.4375C50.3417 4.90625 50.5935 4.44417 50.9532 4.05127C51.3129 3.65837 51.8137 3.354 52.4556 3.13818C53.1031 2.92236 53.9304 2.81445 54.9375 2.81445C55.906 2.81445 56.7028 2.9279 57.3282 3.15479C57.9535 3.38167 58.4405 3.69987 58.7891 4.10938C59.1377 4.51335 59.3812 4.98649 59.5196 5.52881C59.6634 6.07113 59.7354 6.66048 59.7354 7.29688V10.8496C59.7354 11.4639 59.6634 12.0366 59.5196 12.5679C59.3812 13.0936 59.135 13.5529 58.7808 13.9458C58.4322 14.3332 57.9452 14.6375 57.3199 14.8589C56.6945 15.0747 55.9004 15.1826 54.9375 15.1826ZM54.9375 13.8379C55.6514 13.8379 56.238 13.7687 56.6973 13.6304C57.1621 13.4865 57.5052 13.2264 57.7266 12.8501C57.9535 12.4738 58.0669 11.9315 58.0669 11.2231V6.88184C58.0669 6.16797 57.9535 5.61458 57.7266 5.22168C57.4997 4.82878 57.1538 4.55485 56.689 4.3999C56.2297 4.23942 55.6459 4.15918 54.9375 4.15918C54.2347 4.15918 53.6398 4.23942 53.1529 4.3999C52.6659 4.55485 52.2951 4.82878 52.0406 5.22168C51.7915 5.61458 51.667 6.16797 51.667 6.88184V11.2231C51.667 11.9315 51.7915 12.4738 52.0406 12.8501C52.2896 13.2264 52.6576 13.4865 53.1446 13.6304C53.6315 13.7687 54.2292 13.8379 54.9375 13.8379Z" fill="black"/>
</svg>
